<?xml version="1.0" encoding="UTF-8" standalone="no"?>
<!-- Created with Inkscape (http://www.inkscape.org/) -->

<svg
   width="297mm"
   height="210mm"
   viewBox="0 0 297 210"
   version="1.1"
   id="svg1"
   inkscape:version="1.4.2 (ebf0e940, 2025-05-08)"
   sodipodi:docname="logo.svg"
   xml:space="preserve"
   inkscape:export-filename="logo.png"
   inkscape:export-xdpi="300"
   inkscape:export-ydpi="300"
   xmlns:inkscape="http://www.inkscape.org/namespaces/inkscape"
   xmlns:sodipodi="http://sodipodi.sourceforge.net/DTD/sodipodi-0.dtd"
   xmlns="http://www.w3.org/2000/svg"
   xmlns:svg="http://www.w3.org/2000/svg"><sodipodi:namedview
     id="namedview1"
     pagecolor="#ffffff"
     bordercolor="#000000"
     borderopacity="0.25"
     inkscape:showpageshadow="2"
     inkscape:pageopacity="0.0"
     inkscape:pagecheckerboard="0"
     inkscape:deskcolor="#d1d1d1"
     inkscape:document-units="mm"
     inkscape:zoom="1.800255"
     inkscape:cx="556.5878"
     inkscape:cy="302.45714"
     inkscape:window-width="3824"
     inkscape:window-height="2082"
     inkscape:window-x="3848"
     inkscape:window-y="40"
     inkscape:window-maximized="0"
     inkscape:current-layer="layer1" /><defs
     id="defs1"><clipPath
       clipPathUnits="userSpaceOnUse"
       id="clipPath185"><path
         id="path185"
         style="fill:#ff0000;fill-opacity:1;fill-rule:nonzero;stroke:none;stroke-width:0.264583"
         d="m 74.839878,109.40107 v 0.38913 h 0.440282 c -0.146637,-0.12987 -0.293505,-0.25942 -0.440282,-0.38913 z" /></clipPath><clipPath
       clipPathUnits="userSpaceOnUse"
       id="clipPath186"><path
         id="path186"
         style="fill:#ff0000;fill-opacity:1;fill-rule:nonzero;stroke:none;stroke-width:0.264583"
         d="m 74.035793,106.95626 c 0.151498,0.13194 0.303046,0.26406 0.454234,0.39636 v -0.39636 z m -1.481048,0.44958 v 0.57671 h 0.670243 c -0.04112,-0.0358 -0.08236,-0.0717 -0.123505,-0.10748 -0.181957,-0.15547 -0.363765,-0.31254 -0.546738,-0.46923 z" /></clipPath><clipPath
       clipPathUnits="userSpaceOnUse"
       id="clipPath193"><path
         id="path194"
         style="fill:#ff0000;fill-opacity:1;fill-rule:nonzero;stroke:none;stroke-width:0.264583"
         d="m 82.196533,110.43305 v 1.61076 c 0.466952,-0.54363 0.940162,-1.08193 1.423685,-1.61076 z m 3.211689,0 c -0.01886,0.0217 -0.0386,0.0434 -0.05942,0.0651 -0.67483,0.70424 -1.325332,1.43041 -1.96319,2.16783 0.758209,-0.38293 1.530205,-0.73954 2.299602,-1.07745 0.295082,-0.12689 0.593749,-0.24957 0.897102,-0.35864 v -0.79685 z m 1.174089,3.38016 c -0.04001,0.0153 -0.07997,0.0306 -0.119888,0.046 -0.856554,0.3289 -1.704695,0.67804 -2.554883,1.02268 0.299389,0.18647 0.667623,0.41255 1.152385,0.70848 0.342818,0.20928 0.684683,0.42079 1.029393,0.62735 h 0.492993 z m -4.16977,1.66346 c -0.07187,0.0278 -0.144026,0.0552 -0.216008,0.0827 v 0.65836 h 1.385961 c -0.523372,-0.3227 -0.867942,-0.54049 -1.169953,-0.74104 z" /></clipPath></defs><g
     inkscape:label="Layer 1"
     inkscape:groupmode="layer"
     id="layer1"><path
       style="fill:#112e45;stroke:none;stroke-width:1.28721"
       d="m 175.79764,156.516 c -0.0455,0.006 -0.0909,0.012 -0.13643,0.0181 0.0455,0.003 0.0909,0.007 0.13643,0.0103 z"
       id="path148"
       inkscape:export-filename="logo.png"
       inkscape:export-xdpi="300"
       inkscape:export-ydpi="300" /><path
       style="fill:#112e45;stroke:none;stroke-width:1.28721"
       d="m 86.357101,157.13612 c 0.02939,0.0399 0.05957,0.0788 0.09147,0.11679 2.47e-4,2.9e-4 7.62e-4,7.7e-4 0.001,10e-4 l 5.17e-4,5.2e-4 5.17e-4,5.1e-4 5.16e-4,5.2e-4 h 5.17e-4 5.17e-4 v 5.2e-4 h 5.17e-4 5.16e-4 v -5.2e-4 h 5.17e-4 5.17e-4 v -5.2e-4 l 5.17e-4,-5.1e-4 c 0.004,-0.0109 -0.0076,-0.0631 -0.02429,-0.0734 -0.02399,-0.0148 -0.04816,-0.0301 -0.07338,-0.045 z"
       id="path82" /><path
       style="fill:#6f917c;stroke:none;stroke-width:1.28721"
       d="m 186.86415,133.48175 c -0.002,-0.007 0.005,0.0204 0.0253,0.0982 0.003,0.002 0.006,0.004 0.008,0.006 -0.0188,-0.0569 -0.0312,-0.0973 -0.0336,-0.10387 z"
       id="path130" /><path
       style="fill:#6f917c;stroke:none;stroke-width:1.28721"
       d="m 218.64877,128.67842 c 0.002,0.01 0.005,0.0193 0.007,0.0289 0.006,0.0244 0.0834,0.0123 0.0961,0.003 v -5.2e-4 l 5.2e-4,-5.2e-4 5.2e-4,-5.1e-4 h 5.1e-4 v -5.2e-4 -5.2e-4 -5.1e-4 -5.2e-4 l -5.1e-4,-5.2e-4 h -5.2e-4 c -5.9e-4,-3.3e-4 -0.002,-10e-4 -0.003,-0.002 l -5.1e-4,-5.1e-4 h -5.2e-4 c -0.0331,-0.009 -0.0667,-0.0173 -0.10025,-0.0253 z"
       id="path128" /><path
       style="fill:#672178;stroke:none;stroke-width:1.28721"
       d="m 163.18032,63.094826 c -2.75669,-0.154714 -5.86042,0.703147 -7.55923,1.99471 v 0.1788 c 1.09561,0.8979 2.46916,0.815532 3.55224,1.560629 0.76527,0.526448 1.12173,1.527242 1.81126,2.155424 1.45975,1.32985 3.93884,1.18249 4.63537,-0.85938 l 4.28553,2.67839 c -0.41273,-1.999619 -0.95924,-4.773721 -2.51664,-6.211507 -1.02562,-0.946846 -2.55452,-1.404239 -4.20853,-1.497066 z"
       id="path4" /><path
       style="fill:#672178;stroke:none;stroke-width:1.28721"
       d="m 148.12181,38.663242 c -6.72365,0 -13.05264,2.309164 -17.3545,7.678084 -1.42683,1.780752 -2.04258,4.828115 -3.61115,6.314343 -1.03759,0.983124 -2.79449,1.535155 -4.03231,2.258261 -2.72336,1.590904 -5.36539,3.395355 -7.67809,5.549532 -9.62606,8.966216 -13.5463,24.114797 -4.28501,34.98081 -6.40398,1.517589 -12.718708,5.269158 -15.529279,11.427208 -1.30802,2.86591 -1.686251,5.80487 -1.609721,8.92814 0.0166,0.67772 -0.06821,2.58086 0.487308,3.0303 0.82114,0.66437 3.473493,0.18346 4.509803,0.18346 v -4.10673 c 2.146609,1.52822 5.438829,3.47654 8.035169,4.03696 1.76997,0.38206 3.9041,0.0698 5.71335,0.0698 v -0.17828 c -1.85442,-0.53423 -3.60393,-1.64019 -5.35627,-2.44481 -2.4201,-1.11124 -5.30002,-2.14111 -7.472926,-3.68918 -0.8734,-0.62225 -0.231305,-3.71635 0.885736,-3.82251 1.28564,-0.12216 3.63301,1.58708 4.80126,2.13889 4.01657,1.89723 8.22484,4.45273 12.49897,5.67459 l -1.60662,2.3213 c 1.34149,0 3.97034,0.50648 5.13974,-0.18345 1.14427,-0.6751 1.73728,-3.088 2.11925,-4.28036 2.11858,-6.61347 -1.08054,-11.66987 -4.58111,-16.962786 2.64029,-1.13948 5.72713,-4.184483 6.60683,-6.963399 h 0.17828 c 0.47774,1.658316 1.58043,3.190584 2.49081,4.642094 2.32185,3.70202 5.0712,7.186451 8.57984,9.838671 3.72041,2.81231 7.93097,4.77072 10.45207,8.91005 1.83666,3.01559 2.07511,5.87565 2.0469,9.28471 8.72631,0 20.36025,-5.17484 18.85053,-15.71274 -0.2773,-1.93558 -0.98359,-3.63805 -1.88774,-5.35678 5.01463,3.86839 6.33999,8.58302 3.92845,14.46269 3.32453,-0.29247 5.24411,-3.88325 5.9123,-6.78512 0.22284,-0.96781 0.0867,-2.56244 0.78599,-3.31763 0.54675,-0.59053 1.53841,-0.76773 2.22933,-1.1529 1.27326,-0.70982 2.36064,-1.67551 3.22719,-2.84995 2.02982,-2.751021 1.46181,-5.352194 2.204,-8.392254 0.38376,-1.57181 1.68997,-2.883955 2.16834,-4.46381 0.64286,-2.123062 0.2737,-4.13966 0.65474,-6.249231 0.35149,-1.946 2.81375,-2.889213 2.1668,-5.178495 -1.2928,-4.574717 -6.77061,-6.868234 -8.78241,-10.891842 -0.53695,-1.073895 -0.10681,-2.583777 -0.28888,-3.749642 -0.42634,-2.729602 -1.94094,-6.009093 -4.20697,-7.678084 v -0.178284 c 2.74189,-2.513098 4.19433,-8.766151 2.5001,-12.141894 -1.77709,1.372396 -3.36265,6.01366 -6.07095,5.943823 -1.13686,-0.02931 -2.09533,-1.808997 -2.85977,-2.500106 -2.38452,-2.155833 -4.91872,-4.027604 -7.85378,-5.366597 -0.75142,-0.342803 -2.18535,-1.204999 -3.01946,-0.868681 -0.82231,0.331555 -1.54433,1.534537 -1.99522,2.256193 -1.33182,2.131586 -3.28552,6.555782 -1.50069,8.919869 0.98106,1.299454 3.09279,1.732349 4.55166,2.272213 2.3966,0.88686 4.72791,2.003802 6.78512,3.534668 2.03818,1.5167 3.80083,3.301864 5.16816,5.449796 0.78743,1.236998 1.22205,2.828034 2.19056,3.921208 3.44141,3.884437 8.23655,6.549526 11.21069,10.899076 l -8.92762,-0.535884 c -0.67371,1.547214 0.82604,2.737266 1.96422,3.589961 2.22504,1.666942 4.13634,2.166465 3.1843,5.337659 -1.05066,3.499689 -7.15419,4.821201 -10.3265,4.821411 -0.62642,4e-5 -3.92732,-0.378111 -3.76411,0.714685 0.1989,1.33187 3.30146,1.62315 4.29948,1.60352 2.7227,-0.0536 5.01961,-1.677482 7.67808,-1.930632 1.9831,-0.18884 3.21363,0.642771 3.21376,2.647901 4e-5,0.54281 -0.015,1.07088 -0.10956,1.60662 -0.47131,2.66721 -1.90665,4.703713 -4.35425,5.935553 -0.69039,0.34745 -1.87707,1.05035 -2.65927,0.65888 -0.70313,-0.3519 -0.96394,-1.32641 -1.35237,-1.95182 -0.56615,-0.911572 -1.35204,-1.659189 -2.23759,-2.257229 -1.85452,-1.25246 -4.34992,-1.914127 -5.67459,-3.814237 -1.6354,-2.3458 -1.6519,-5.0814 -3.96824,-7.08794 -2.52885,-2.190621 -6.15001,-2.199557 -8.56743,-4.371826 -1.49175,-1.340475 -1.88559,-2.981681 -2.50217,-4.788338 -1.93668,1.430549 -2.37852,4.196553 -1.96423,6.428031 -3.25829,-2.513534 -5.9262,-6.004446 -5.50509,-10.355957 0.16363,-1.690765 0.93693,-3.178914 1.21957,-4.821411 -2.46725,0.71212 -4.37772,3.220033 -4.8209,5.713863 h -0.17828 c -0.28793,-3.648154 -0.93035,-7.697232 0.3328,-11.248926 0.42903,-1.206352 1.19241,-2.302804 2.16937,-3.131075 0.41966,-0.355782 1.36356,-0.832415 1.18546,-1.511535 -0.20448,-0.779754 -1.47937,-1.548238 -2.08101,-2.023649 -1.97225,-1.558449 -6.78024,-4.75179 -8.34161,-1.011308 -1.75411,4.202217 2.41525,6.721404 4.0566,9.820072 -1.62671,-0.520323 -3.18399,-1.06805 -4.38578,-2.351277 -2.87901,-3.074103 -3.85206,-9.834463 0.99322,-11.627714 3.44109,-1.273551 5.96703,1.252441 8.92762,2.372981 0,-3.815212 0.10075,-7.18517 1.80506,-10.713041 0.87605,-1.813425 2.48383,-3.340604 3.19464,-5.178495 z m -20.28197,21.890653 c 0.20831,-0.006 0.40217,0.0269 0.56586,0.11989 0.66318,0.376728 0.78328,1.774907 0.77411,2.45153 -0.0256,1.892644 -2.32279,3.889105 -3.19929,5.535579 l -6.42803,-3.928442 c 1.42044,-1.840451 4.28075,-2.908157 6.42803,-3.63027 0.4774,-0.160539 1.23441,-0.53033 1.85932,-0.548287 z m -10.11566,5.805331 c 0.68145,0.04777 1.47665,0.822305 2.00711,1.154451 1.68704,1.056349 3.34571,2.321888 5.17798,3.111438 l -1.24954,4.106726 -9.99939,-3.749642 c 0.63732,-1.118784 2.53868,-4.508832 3.92896,-4.622456 0.0443,-0.0036 0.0894,-0.0037 0.13488,-5.17e-4 z m 17.71985,3.730005 c -0.96623,3.532697 -2.58404,6.608706 -2.84065,10.355957 -0.2964,4.327883 1.1119,9.080182 3.17344,12.856063 1.08326,1.98408 2.72736,3.828453 3.59565,5.892663 -7.11982,-4.45349 -10.6305,-14.199346 -8.26358,-22.141284 0.69166,-2.320799 2.00303,-5.872831 4.33514,-6.963399 z m -23.03374,3.213757 c 3.46959,0.519667 7.67959,2.325555 10.89236,3.749642 l -0.1788,3.750159 -11.9631,-2.143022 z m -1.24954,7.856885 11.9631,2.142505 -1.25005,4.46381 c -2.41324,-0.448296 -4.8894,-0.593681 -7.32049,-0.941028 -0.70872,-0.101252 -2.15388,-0.0032 -2.65358,-0.594279 -0.88055,-1.041385 -0.73884,-3.775814 -0.73898,-5.071008 z m 74.63628,3.570841 c 0.87538,1.640285 0.25813,4.498144 -0.89297,5.892664 -0.90107,-1.795355 -0.81726,-4.619071 0.89297,-5.892664 z m -42.31783,1.964221 c 1.69404,7.148603 9.05492,11.030555 13.12581,16.605705 2.69032,3.68444 3.87493,8.88478 1.51567,13.03435 h -0.17828 c 0.1758,-8.56099 -5.38232,-13.20301 -10.31875,-19.462381 -1.75265,-2.22235 -5.4345,-7.074375 -4.14445,-10.177674 z m -30.53302,2.142505 7.321,1.071253 c -1.10232,1.56467 -2.96443,3.035388 -4.82142,3.571358 -0.80587,-1.12512 -2.74374,-3.17673 -2.49958,-4.642611 z m 1.08985,11.17813 c 0.11139,-0.004 0.21948,0.006 0.32246,0.0331 0.69178,0.18376 1.26347,1.12146 1.69189,1.64486 1.37576,1.68075 2.61854,3.46379 3.32383,5.53506 l -4.28553,-1.81022 -7.32048,-3.36776 c 1.35732,-0.85412 3.28309,-1.18924 4.82089,-1.63194 0.42308,-0.12179 0.96427,-0.3865 1.44694,-0.40307 z m -8.91625,3.54862 c 1.06727,-0.0539 2.47759,0.96434 3.36259,1.38234 2.66192,1.25737 5.34629,2.48774 8.03516,3.68608 0.85333,0.38029 2.69355,0.90283 3.20859,1.70171 0.65564,1.01697 -0.12896,3.13444 -0.35191,4.21525 l -6.42803,-2.81069 -11.24893,-5.22448 c 0.68952,-1.0424 1.90102,-2.66136 3.21376,-2.92489 0.0678,-0.0136 0.13762,-0.0217 0.20877,-0.0253 z"
       id="path3" /><path
       style="fill:#672178;stroke:none;stroke-width:1.28721"
       d="m 161.8543,33.195875 c -2.1787,-0.05029 -4.38203,0.422513 -6.41201,1.33687 -5.95284,2.681334 -10.24297,9.417673 -10.52752,15.915307 -0.13254,3.026577 -0.0852,8.388002 4.27829,8.003646 1.53579,-0.135279 5.3652,-1.295302 5.83065,-3.019971 0.16892,-0.625861 -0.6621,-1.269931 -0.93534,-1.769917 -0.52789,-0.965993 -0.79297,-2.294491 -0.76585,-3.392558 0.15392,-6.232951 5.37224,-13.869269 12.11916,-13.562997 2.16319,0.09819 3.80484,1.313161 5.71386,2.135787 0.30051,-1.625506 -1.81106,-3.099954 -3.03547,-3.84576 -1.93267,-1.177237 -4.08707,-1.750121 -6.26577,-1.800407 z"
       id="path1"
       inkscape:export-filename="logo.png"
       inkscape:export-xdpi="300"
       inkscape:export-ydpi="300" /><g
       inkscape:label="Layer 1"
       id="layer1-1" /></g></svg>
