<svg xmlns="http://www.w3.org/2000/svg" width="1496" height="843" style="cursor: move;"><g transform="translate(-579.5212827424991,-416.6601825817289) scale(1.8738428937448497)"><path class="link" marker-end="" d="M699,331.5C733.5,331.5 733.5,411.5 768,411.5" style="stroke-width: 2; stroke-opacity: 1; stroke: rgb(80, 80, 80); fill: none; opacity: 1;"></path><path class="link" marker-end="" d="M699,371.5C733.5,371.5 733.5,411.5 768,411.5" style="stroke-width: 2; stroke-opacity: 1; stroke: rgb(80, 80, 80); fill: none; opacity: 1;"></path><path class="link" marker-end="" d="M699,411.5C733.5,411.5 733.5,411.5 768,411.5" style="stroke-width: 2; stroke-opacity: 1; stroke: rgb(80, 80, 80); fill: none; opacity: 1;"></path><path class="link" marker-end="" d="M699,451.5C733.5,451.5 733.5,411.5 768,411.5" style="stroke-width: 2; stroke-opacity: 1; stroke: rgb(80, 80, 80); fill: none; opacity: 1;"></path><path class="link" marker-end="" d="M768,371.5C802.5,371.5 802.5,391.5 837,391.5" style="stroke-width: 2; stroke-opacity: 1; stroke: rgb(80, 80, 80); fill: none;"></path><path class="link" marker-end="" d="M768,411.5C802.5,411.5 802.5,391.5 837,391.5" style="stroke-width: 2; stroke-opacity: 1; stroke: rgb(80, 80, 80); fill: none;"></path><path class="link" marker-end="" d="M699,491.5C733.5,491.5 733.5,411.5 768,411.5" style="stroke-width: 2; stroke-opacity: 1; stroke: rgb(80, 80, 80); fill: none;"></path><path class="link" marker-end="" d="M699,331.5C733.5,331.5 733.5,451.5 768,451.5" style="stroke-width: 2; stroke-opacity: 1; stroke: rgb(80, 80, 80); fill: none;"></path><path class="link" marker-end="" d="M699,371.5C733.5,371.5 733.5,451.5 768,451.5" style="stroke-width: 2; stroke-opacity: 1; stroke: rgb(80, 80, 80); fill: none;"></path><path class="link" marker-end="" d="M699,411.5C733.5,411.5 733.5,451.5 768,451.5" style="stroke-width: 2; stroke-opacity: 1; stroke: rgb(80, 80, 80); fill: none;"></path><path class="link" marker-end="" d="M699,451.5C733.5,451.5 733.5,451.5 768,451.5" style="stroke-width: 2; stroke-opacity: 1; stroke: rgb(80, 80, 80); fill: none;"></path><path class="link" marker-end="" d="M699,491.5C733.5,491.5 733.5,451.5 768,451.5" style="stroke-width: 2; stroke-opacity: 1; stroke: rgb(80, 80, 80); fill: none;"></path><path class="link" marker-end="" d="M768,451.5C802.5,451.5 802.5,391.5 837,391.5" style="stroke-width: 2; stroke-opacity: 1; stroke: rgb(80, 80, 80); fill: none;"></path><path class="link" marker-end="" d="M768,371.5C802.5,371.5 802.5,431.5 837,431.5" style="stroke-width: 2; stroke-opacity: 1; stroke: rgb(80, 80, 80); fill: none;"></path><path class="link" marker-end="" d="M768,411.5C802.5,411.5 802.5,431.5 837,431.5" style="stroke-width: 2; stroke-opacity: 1; stroke: rgb(80, 80, 80); fill: none;"></path><path class="link" marker-end="" d="M768,451.5C802.5,451.5 802.5,431.5 837,431.5" style="stroke-width: 2; stroke-opacity: 1; stroke: rgb(80, 80, 80); fill: none;"></path><path class="link" marker-end="" d="M699,331.5C733.5,331.5 733.5,371.5 768,371.5" style="stroke-width: 2; stroke-opacity: 1; stroke: rgb(80, 80, 80); fill: none;"></path><path class="link" marker-end="" d="M699,371.5C733.5,371.5 733.5,371.5 768,371.5" style="stroke-width: 2; stroke-opacity: 1; stroke: rgb(80, 80, 80); fill: none;"></path><path class="link" marker-end="" d="M699,411.5C733.5,411.5 733.5,371.5 768,371.5" style="stroke-width: 2; stroke-opacity: 1; stroke: rgb(80, 80, 80); fill: none;"></path><path class="link" marker-end="" d="M699,451.5C733.5,451.5 733.5,371.5 768,371.5" style="stroke-width: 2; stroke-opacity: 1; stroke: rgb(80, 80, 80); fill: none;"></path><path class="link" marker-end="" d="M699,491.5C733.5,491.5 733.5,371.5 768,371.5" style="stroke-width: 2; stroke-opacity: 1; stroke: rgb(80, 80, 80); fill: none;"></path><circle r="10" class="node" id="0_0" cx="699" cy="331.5" style="fill: rgb(42, 47, 187); stroke: rgb(51, 51, 51); opacity: 1;"></circle><circle r="10" class="node" id="0_1" cx="699" cy="371.5" style="fill: rgb(42, 47, 187); stroke: rgb(51, 51, 51); opacity: 1;"></circle><circle r="10" class="node" id="0_2" cx="699" cy="411.5" style="fill: rgb(42, 47, 187); stroke: rgb(51, 51, 51); opacity: 1;"></circle><circle r="10" class="node" id="0_3" cx="699" cy="451.5" style="fill: rgb(42, 47, 187); stroke: rgb(51, 51, 51); opacity: 1;"></circle><circle r="10" class="node" id="0_4" cx="699" cy="491.5" style="fill: rgb(42, 47, 187); stroke: rgb(51, 51, 51);"></circle><circle r="10" class="node" id="1_0" cx="768" cy="371.5" style="fill: rgb(42, 47, 187); stroke: rgb(51, 51, 51); opacity: 1;"></circle><circle r="10" class="node" id="1_1" cx="768" cy="411.5" style="fill: rgb(42, 47, 187); stroke: rgb(51, 51, 51); opacity: 1;"></circle><text class="text" dy=".35em" x="664" y="531.5" style="font-size: 12px;">Input Layer ∈ ℝ⁵</text><text class="text" dy=".35em" x="733" y="531.5" style="font-size: 12px;">Hidden Layer ∈ ℝ³</text><circle r="10" class="node" id="1_2" cx="768" cy="451.5" style="fill: rgb(42, 47, 187); stroke: rgb(51, 51, 51);"></circle><circle r="10" class="node" id="2_0" cx="837" cy="391.5" style="fill: rgb(42, 47, 187); stroke: rgb(51, 51, 51);"></circle><text class="text" dy=".35em" x="802" y="531.5" style="font-size: 12px;">Output Layer ∈ ℝ²</text><circle r="10" class="node" id="2_1" cx="837" cy="431.5" style="fill: rgb(42, 47, 187); stroke: rgb(51, 51, 51);"></circle></g><defs><marker id="arrow" viewBox="0 -5 10 10" markerWidth="7" markerHeight="7" orient="auto" refX="40"><path d="M0,-5L10,0L0,5" style="stroke: rgb(80, 80, 80); fill: none;"></path></marker></defs></svg>