<?xml version="1.0" encoding="iso-8859-1"?>
<!-- Uploaded to: SVG Repo, www.svgrepo.com, Generator: SVG Repo Mixer Tools -->
<svg version="1.1" id="Layer_1" xmlns="http://www.w3.org/2000/svg" xmlns:xlink="http://www.w3.org/1999/xlink" 
	 viewBox="0 0 505 505" xml:space="preserve">
<circle style="fill:#84DBFF;" cx="252.5" cy="252.5" r="252.5"/>
<polygon style="fill:#FFFFFF;" points="325.6,86.1 325.6,139.7 379.1,139.7 379.1,418.9 125.9,418.9 125.9,86.1 "/>
<polygon style="fill:#E6E9EE;" points="325.6,86.1 379.1,139.7 325.6,139.7 "/>
<rect id="SVGCleanerId_0" x="171.7" y="270.4" style="fill:#F1543F;" width="161.5" height="7.9"/>
<rect id="SVGCleanerId_1" x="248.6" y="193.6" style="fill:#F1543F;" width="7.9" height="161.5"/>
<g transform="matrix(0.7071 0.7071 -0.7071 0.7071 271.47 -99.63)">
	
		<rect id="SVGCleanerId_0_1_" x="171.735" y="270.37" transform="matrix(-0.7071 -0.7071 0.7071 -0.7071 237.0445 646.827)" style="fill:#F1543F;" width="161.498" height="7.9"/>
</g>
<g transform="matrix(0.7071 0.7071 -0.7071 0.7071 271.47 -99.63)">
	
		<rect id="SVGCleanerId_1_1_" x="248.605" y="193.641" transform="matrix(-0.7071 -0.7071 0.7071 -0.7071 237.1152 646.9977)" style="fill:#F1543F;" width="7.9" height="161.498"/>
</g>
<g>
	<circle style="fill:#FF7058;" cx="309.6" cy="217.3" r="17.8"/>
	<circle style="fill:#FF7058;" cx="252.5" cy="274.4" r="30.8"/>
	<circle style="fill:#FF7058;" cx="333.3" cy="274.4" r="17.8"/>
	<circle style="fill:#FF7058;" cx="171.7" cy="274.4" r="17.8"/>
	<circle style="fill:#FF7058;" cx="252.5" cy="355.2" r="17.8"/>
	<circle style="fill:#FF7058;" cx="252.5" cy="193.6" r="17.8"/>
	<circle style="fill:#FF7058;" cx="309.6" cy="331.5" r="17.8"/>
	<circle style="fill:#FF7058;" cx="195.4" cy="217.3" r="17.8"/>
	<circle style="fill:#FF7058;" cx="195.4" cy="331.5" r="17.8"/>
</g>
</svg>